<?xml version="1.0" standalone="no"?><!DOCTYPE svg PUBLIC "-//W3C//DTD SVG 1.1//EN" "http://www.w3.org/Graphics/SVG/1.1/DTD/svg11.dtd"><svg t="1713591498944" class="icon" viewBox="0 0 1024 1024" version="1.1" xmlns="http://www.w3.org/2000/svg" p-id="2422" xmlns:xlink="http://www.w3.org/1999/xlink" width="200" height="200"><path d="M512 170.666667c282.752 0 512 298.666667 512 341.333333s-229.248 341.333333-512 341.333333-512-298.666667-512-341.333333 229.248-341.333333 512-341.333333z m0 85.333333C299.946667 256 85.333333 480 85.333333 512s214.613333 256 426.666667 256 426.666667-224 426.666667-256-214.613333-256-426.666667-256z m0 85.333333a170.666667 170.666667 0 1 1 0 341.333334 170.666667 170.666667 0 0 1 0-341.333334z m0 85.333334a85.333333 85.333333 0 1 0 0 170.666666 85.333333 85.333333 0 0 0 0-170.666666z" p-id="2423"></path></svg>