<?xml version="1.0" standalone="no"?><!DOCTYPE svg PUBLIC "-//W3C//DTD SVG 1.1//EN" "http://www.w3.org/Graphics/SVG/1.1/DTD/svg11.dtd"><svg t="1713591516444" class="icon" viewBox="0 0 1024 1024" version="1.1" xmlns="http://www.w3.org/2000/svg" p-id="2563" xmlns:xlink="http://www.w3.org/1999/xlink" width="200" height="200"><path d="M940.169 586.42c12.379 12.816 10.922 33.277-2.476 44.71a34.297 34.297 0 0 1-46.676-2.403l-81.92-87.454c-0.51-0.51-0.51-0.947-1.02-1.457a480.088 480.088 0 0 1-147.456 49.444l34.224 99.833a30.948 30.948 0 0 1-20.825 39.904 39.322 39.322 0 0 1-10.413 1.456 32.768 32.768 0 0 1-31.312-21.845l-38.23-111.266a979.326 979.326 0 0 1-160.417-0.946l-36.7 106.387a32.768 32.768 0 0 1-31.312 21.845 39.322 39.322 0 0 1-10.413-1.384c-17.403-5.68-26.797-23.301-20.898-39.904l33.277-96.556c-60.074-11.87-108.207-30.365-147.456-53.667l-87.381 93.207a32.768 32.768 0 0 1-24.83 10.413 33.423 33.423 0 0 1-21.846-8.083 30.656 30.656 0 0 1-2.476-44.71l82.94-88.838a552.177 552.177 0 0 1-77.988-77.04 30.802 30.802 0 0 1 4.951-44.711 34.152 34.152 0 0 1 46.676 4.733c57.09 66.992 135.587 159.253 376.905 159.253 244.814 0 328.7-88.838 370.424-155.466a33.496 33.496 0 0 1 45.147-10.923 30.583 30.583 0 0 1 11.506 43.254c-21.846 35.244-49.662 64.662-81.484 89.857l77.479 82.284z" p-id="2564"></path></svg>